<svg width="100%" viewBox="0 0 1692 1099" fill="none" xmlns="http://www.w3.org/2000/svg">
<g clip-path="url(#clip0_152_2)">
<path d="M1692 0H0V1099H1692V0Z" fill="#114B5F"/>
<path d="M1012.03 549.5L569.992 1099H1476.27L1012.03 549.5Z" fill="#E4FDE1"/>
<path d="M1015.51 549.5L926.571 1099H1479.75L1015.51 549.5Z" fill="#6B2737"/>
<path d="M-63.45 1099L420.885 808.375L862.92 1099H-63.45Z" fill="#DBE6B4"/>
<path d="M356.377 1099L420.885 808.375L862.92 1099H356.377Z" fill="#853042"/>
<path d="M1272.17 666.727L1641.24 1099H926.37L1272.17 666.727Z" fill="#E0CB89"/>
<path d="M1272.17 666.727L1641.24 1099H1228.81L1272.17 666.727Z" fill="#A03A4D"/>
<path d="M677.858 848.672L936.945 1099H388.103L677.858 848.672Z" fill="#EAAB6A"/>
<path d="M620.752 1099L677.857 848.672L936.945 1099H620.752Z" fill="#BB4557"/>
<path d="M1808.33 1099L1481.56 771.742L1159.02 1099H1808.33Z" fill="#F3865F"/>
<path d="M1808.32 1099L1481.56 771.742L1443.49 1099H1808.32Z" fill="#D74F60"/>
<path d="M1279.58 1099L1026.83 838.903L766.688 1099H1279.58Z" fill="#F45B69"/>
<path d="M997.223 1099H1279.58L1026.83 838.903L997.223 1099Z" fill="#F45B69"/>
</g>
<defs>
<clipPath id="clip0_152_2">
<rect width="1692" height="1099" fill="white"/>
</clipPath>
</defs>
</svg>